<?xml version="1.0" encoding="UTF-8"?>
<svg xmlns="http://www.w3.org/2000/svg" width="960px" height="540px" viewBox="0 0 960 540">
  <rect x="0" y="0" width="960" height="540" fill="#f8fafc" />
  <text x="40" y="36" fill="#0f172a" font-size="18" font-family="Arial, Helvetica, sans-serif">Demo Flowchart</text>
  <rect x="80" y="70" width="800" height="56" fill="#2563eb" rx="10" ry="10" />
  <text x="100" y="104" fill="#ffffff" font-size="16" font-family="Arial, Helvetica, sans-serif">Demo flowchart</text>
  <line x1="480" y1="126" x2="480" y2="146" stroke="#64748b" stroke-width="3" />
  <rect x="80" y="154" width="800" height="56" fill="#2563eb" rx="10" ry="10" />
  <text x="100" y="188" fill="#ffffff" font-size="16" font-family="Arial, Helvetica, sans-serif">Request</text>
  <line x1="480" y1="210" x2="480" y2="230" stroke="#64748b" stroke-width="3" />
  <rect x="80" y="238" width="800" height="56" fill="#2563eb" rx="10" ry="10" />
  <text x="100" y="272" fill="#ffffff" font-size="16" font-family="Arial, Helvetica, sans-serif">Process</text>
  <line x1="480" y1="294" x2="480" y2="314" stroke="#64748b" stroke-width="3" />
  <rect x="80" y="322" width="800" height="56" fill="#2563eb" rx="10" ry="10" />
  <text x="100" y="356" fill="#ffffff" font-size="16" font-family="Arial, Helvetica, sans-serif">Response</text>
  <line x1="480" y1="378" x2="480" y2="398" stroke="#64748b" stroke-width="3" />
  <rect x="80" y="406" width="800" height="56" fill="#2563eb" rx="10" ry="10" />
  <text x="100" y="440" fill="#ffffff" font-size="16" font-family="Arial, Helvetica, sans-serif">Sequence</text>
</svg>
