<svg xmlns="http://www.w3.org/2000/svg" width="1168" height="1184" viewBox="0 0 1168 1184"><rect width="1168" height="1184" fill="rgb(255,255,252)" /><text x="24" y="44" fill="rgb(10,40,70)" font-size="22" font-weight="bold">Planet Earth</text><text x="24" y="68" fill="rgb(70,80,90)" font-size="14" font-style="italic">Internal structure</text><g id="illustration"><rect x="256.5" y="243.70000000000005" width="655.0" height="655.0" fill="none" stroke="rgb(35,55,75)" stroke-width="1" rx="4" /></g><g id="arrows"><path d="M 545.5 189.8 L 584.0 604.0" fill="none" stroke="rgb(20,50,80)" stroke-width="2" /><polygon points="584.0,604.0 577.6,594.5 588.6,593.5" fill="rgb(20,50,80)" /><path d="M 870.6 775.7 L 485.8 538.5" fill="none" stroke="rgb(20,50,80)" stroke-width="2" /><polygon points="485.8,538.5 497.1,539.0 491.4,548.4" fill="rgb(20,50,80)" /><path d="M 223.4 775.7 L 662.6 492.6" fill="none" stroke="rgb(20,50,80)" stroke-width="2" /><polygon points="662.6,492.6 657.2,502.6 651.2,493.4" fill="rgb(20,50,80)" /></g><g id="labels"><rect x="524.0" y="160.95" width="43.0" height="28.8" rx="6" fill="rgba(255,255,255,0.922)" stroke="rgb(35,55,75)" /><text x="530.0" y="178.95" fill="rgb(25,35,45)" font-size="14">Core</text><rect x="870.6266678647216" y="761.325" width="55.0" height="28.8" rx="6" fill="rgba(255,255,255,0.922)" stroke="rgb(35,55,75)" /><text x="876.6266678647216" y="779.325" fill="rgb(25,35,45)" font-size="14">Mantle</text><rect x="177.37333213527847" y="761.3250000000003" width="46.0" height="28.8" rx="6" fill="rgba(255,255,255,0.922)" stroke="rgb(35,55,75)" /><text x="183.37333213527847" y="779.3250000000003" fill="rgb(25,35,45)" font-size="14">Crust</text></g><g id="legend"><rect x="868.0" y="1010.0" width="220.0" height="94.0" rx="8" fill="rgba(245,248,250,0.941)" stroke="rgb(35,55,75)" /><text x="878.0" y="1030.0" fill="rgb(25,35,45)" font-size="12" font-weight="bold">Legend</text><circle cx="884.0" cy="1046.0" r="6" fill="rgb(200,120,60)" /><text x="896.0" y="1050.0" fill="rgb(25,35,45)" font-size="11">Core = Inner hot core</text><circle cx="884.0" cy="1066.0" r="6" fill="rgb(200,100,60)" /><text x="896.0" y="1070.0" fill="rgb(25,35,45)" font-size="11">Mantle = Rocky mantle</text><circle cx="884.0" cy="1086.0" r="6" fill="rgb(120,90,60)" /><text x="896.0" y="1090.0" fill="rgb(25,35,45)" font-size="11">Crust = Thin outer crust</text></g></svg>