<svg xmlns="http://www.w3.org/2000/svg" width="963" height="992" viewBox="0 0 963 992"><rect width="963" height="992" fill="rgb(255,255,252)" /><text x="24" y="44" fill="rgb(10,40,70)" font-size="22" font-weight="bold">Planet Earth</text><text x="24" y="68" fill="rgb(70,80,90)" font-size="14" font-style="italic">Internal structure</text><g id="illustration"><rect x="219.50000000000003" y="217.03999999999996" width="524.0" height="524.0" fill="none" stroke="rgb(35,55,75)" stroke-width="1" rx="4" /></g><g id="arrows"><path d="M 443.0 169.6 L 481.5 505.2" fill="none" stroke="rgb(20,50,80)" stroke-width="2" /><polygon points="481.5,505.2 474.9,495.9 485.8,494.7" fill="rgb(20,50,80)" /><path d="M 705.7 647.5 L 402.9 452.8" fill="none" stroke="rgb(20,50,80)" stroke-width="2" /><polygon points="402.9,452.8 414.3,453.6 408.3,462.9" fill="rgb(20,50,80)" /><path d="M 183.3 647.5 L 544.4 416.2" fill="none" stroke="rgb(20,50,80)" stroke-width="2" /><polygon points="544.4,416.2 538.9,426.2 533.0,416.9" fill="rgb(20,50,80)" /></g><g id="labels"><rect x="421.5" y="140.83999999999992" width="43.0" height="28.8" rx="6" fill="rgba(255,255,255,0.922)" stroke="rgb(35,55,75)" /><text x="427.5" y="158.83999999999992" fill="rgb(25,35,45)" font-size="14">Core</text><rect x="705.7295375220529" y="633.1399999999999" width="55.0" height="28.8" rx="6" fill="rgba(255,255,255,0.922)" stroke="rgb(35,55,75)" /><text x="711.7295375220529" y="651.1399999999999" fill="rgb(25,35,45)" font-size="14">Mantle</text><rect x="137.27046247794726" y="633.1400000000001" width="46.0" height="28.8" rx="6" fill="rgba(255,255,255,0.922)" stroke="rgb(35,55,75)" /><text x="143.27046247794726" y="651.1400000000001" fill="rgb(25,35,45)" font-size="14">Crust</text></g><g id="legend"><rect x="663.0" y="818.0" width="220.0" height="94.0" rx="8" fill="rgba(245,248,250,0.941)" stroke="rgb(35,55,75)" /><text x="673.0" y="838.0" fill="rgb(25,35,45)" font-size="12" font-weight="bold">Legend</text><circle cx="679.0" cy="854.0" r="6" fill="rgb(200,120,60)" /><text x="691.0" y="858.0" fill="rgb(25,35,45)" font-size="11">Core = Inner hot core</text><circle cx="679.0" cy="874.0" r="6" fill="rgb(200,100,60)" /><text x="691.0" y="878.0" fill="rgb(25,35,45)" font-size="11">Mantle = Rocky mantle</text><circle cx="679.0" cy="894.0" r="6" fill="rgb(120,90,60)" /><text x="691.0" y="898.0" fill="rgb(25,35,45)" font-size="11">Crust = Thin outer crust</text></g></svg>